<svg xmlns="http://www.w3.org/2000/svg" width="34.264" height="52.795" viewBox="0 0 34.264 52.795">
  <g id="그룹_4" data-name="그룹 4" transform="translate(-1.642 -0.19)">
    <path id="패스_38" data-name="패스 38" d="M35.486,6.1,13.571.21a.568.568,0,0,0-.293,1.1L35.193,7.2a.568.568,0,0,0,.293-1.1Z" fill="#d1d1d3"/>
    <path id="패스_39" data-name="패스 39" d="M2.348,46.523l19.765,5.311a1.548,1.548,0,0,1-1.9,1.1L3.445,48.426a1.554,1.554,0,0,1-1.1-1.9Z" fill="#bababa"/>
    <path id="패스_40" data-name="패스 40" d="M34.683,11.29,24.8,48.28a7.147,7.147,0,0,1-.48,1.121,6.877,6.877,0,0,1-2.207,2.432L2.342,46.522a6.824,6.824,0,0,1-.552-4.429L11.674,5.1l1.294-1.7s.514-1.655.705-1.989L34.839,7.106a9.088,9.088,0,0,1-.191,1.025c-.1.438-.2.878-.241,1.024Z" fill="#ededf2"/>
    <path id="패스_41" data-name="패스 41" d="M21.931,51.721c-.3-.125-1.325-.415-1.754-.548l-.818-.257-.645-.173-1.848-.5-.628-.169-1.216-.327-.594-.16-.365-.1-1.121-.3-.569-.153c-3.328-.879-5.225-1.4-8.055-2.1l-.5-.135-.33-.089L3.408,46.7l-.136-.036L3.2,46.643l-.39-.068-.146-.022-.02-.005-.211-.022-.062,0c.018.029-.052.008,0,0a.1.1,0,0,0-.023.02.119.119,0,0,0-.007.027l.327.127c.4.106.777.231,1.151.351l.521.14c.524.152,1.07.313,1.653.488l.608.163,1.08.29.545.146c2.65.653,4.543,1.166,7.467,1.974l.527.142c.709.191,1.446.41,2.263.645l.514.151.608.163.405.109C21.448,51.781,22.576,51.986,21.931,51.721Z" fill="#afafaf"/>
    <path id="패스_42" data-name="패스 42" d="M33.945,9a19.173,19.173,0,0,0-1.864-.488c-.3-.081-.59-.158-.864-.245l-.186-.035-.5-.095c-.663-.13-1.316-.262-1.956-.4l-.66-.147c-.219-.059-.444-.1-.665-.153l-.612-.147c-.2-.054-.405-.109-.622-.152l-.383-.1-1.165-.313-.6-.16c-1.74-.437-3.095-.832-4.383-1.213s-2.5-.756-3.961-1.2l-.516-.176a3.266,3.266,0,0,1-.334-.123L14.6,3.829,14.449,3.8l-.075-.02c-.144-.021-.284-.042-.419-.058l-.161-.015-.02-.005-.233.009c-.026.008-.054.016-.076.025,0,.064-.065.031,0,0a.105.105,0,0,0,0-.018c-.005.02-.032.039-.041.056a.256.256,0,0,0-.018.067l.307.226c.39.166.775.352,1.146.541l.526.218,1.676.7.632.22c.371.126.744.248,1.124.361l.57.166,3.82.981c1.234.316,2.505.656,4.058,1.023l.553.149,2.41.582.547.134.653.143.428.082C33.407,9.42,34.636,9.34,33.945,9Z" fill="#d1d1d3"/>
    <path id="패스_43" data-name="패스 43" d="M23.233,49.249c-.085-.023-.208-.036-.37-.069s-.337-.049-.526-.087c-.372-.063-.764-.149-.995-.2-.306-.082-.6-.161-.876-.259l-.188-.037c-.166-.045-.337-.071-.505-.11-.672-.152-1.335-.32-1.983-.489l-.671-.18-.677-.182-.623-.181-.631-.185-.39-.118-1.186-.373-.6-.192L8.49,45.344c-1.332-.358-2.584-.72-4.081-1.164L3.876,44l-.343-.123-.085-.023L3.3,43.833l-.077-.021c-.149-.02-.294-.04-.431-.055l-.164-.014L2.6,43.738l-.24.014a.748.748,0,0,0-.077.027c0,.066-.065.033,0,0l0-.018c0-.018-.032.039-.042.058a.257.257,0,0,0-.018.067l.317.229c.406.17.8.346,1.184.536l.541.219,1.732.7c.217.074.434.149.654.217.382.122.771.238,1.161.347l.588.158c1.432.33,2.655.631,3.911.981s2.541.752,4.115,1.2L17,48.64c.761.224,1.559.456,2.453.7l.561.151c.225.06.446.12.674.159l.444.087a7.149,7.149,0,0,0,1.979-.139C23.514,49.479,23.6,49.353,23.233,49.249Z" fill="#d1d1d3"/>
    <path id="패스_44" data-name="패스 44" d="M22.734,45.58a8.378,8.378,0,0,0,.643-1.291c.236-.551.457-1.132.611-1.472q.295-.672.578-1.293l.091-.283.25-.763c.327-1.014.648-2.017.952-3.012.1-.34.21-.68.316-1.022s.207-.685.312-1.029l.288-.955q.145-.481.289-.968c.054-.2.123-.4.183-.6l.553-1.825c.083-.309.188-.616.283-.928,1.424-5.477,2.236-8.6,3.246-13.287.074-.276.134-.557.2-.833l.145-.541.013-.132.02-.236.009-.122c.014-.23.023-.451.025-.662l0-.252,0-.033-.05-.364c-.018-.04-.033-.081-.052-.114-.1.015-.057-.1,0,0a.093.093,0,0,0,.026.007c-.034.013-.063-.041-.092-.053a.311.311,0,0,0-.107-.016c-.1.163-.2.342-.3.509-.2.64-.425,1.265-.667,1.864-.088.279-.176.561-.267.845-.274.856-.562,1.746-.885,2.694l-.269,1.006c-.157.589-.316,1.181-.46,1.78l-.217.9a123.538,123.538,0,0,1-3.218,12.245c-.09.281-.183.563-.275.85-.375,1.143-.786,2.333-1.262,3.641-.1.268-.21.541-.317.814-.118.328-.233.652-.35.975l-.226.636a27.782,27.782,0,0,0-.459,2.92C22.267,45.825,22.372,46.071,22.734,45.58Z" fill="#f4f4f7"/>
  </g>
</svg>
