<svg xmlns="http://www.w3.org/2000/svg" width="40.24" height="95.611" viewBox="0 0 40.24 95.611">
  <g id="그룹_3" data-name="그룹 3" transform="translate(-1.976 -2.099)">
    <path id="패스_33" data-name="패스 33" d="M25.351,93.095a9.835,9.835,0,0,1-1.319,3.43,2.151,2.151,0,0,1-.836.718c-1.614,1.9-19.22-2.408-21.076-5.831a1.954,1.954,0,0,1-.143-.8A10.028,10.028,0,0,1,2.3,88.422L14.347,42c1.771-5.015,6.463-6.054,8.038-9.869L30.421,9.24c-2.36-1.827,1.458-4.31,1.275-5.013-1.253-1.294.569-2.129.569-2.129a44.817,44.817,0,0,1,9.29,2.435c.214.357,1.483.873-.2,2.331.065,1.089.81,4.538-1.441,4.886l-4.493,23.61c-.765,3.557,3.324,8.094,2.008,13.71Z" fill="#bec6bb"/>
    <path id="패스_34" data-name="패스 34" d="M24.039,96.527a2.152,2.152,0,0,1-.836.718c-1.614,1.9-19.22-2.408-21.076-5.831a1.954,1.954,0,0,1-.143-.8,83,83,0,0,1,11.281,2.26A83.171,83.171,0,0,1,24.039,96.527Z" fill="#8fa293"/>
    <path id="패스_35" data-name="패스 35" d="M40.015,6.061c-.071-.162-.4-.3-.542-.385a2.671,2.671,0,0,1-.249-.188l-.219-.059-.625-.168L38.168,5.2l-.216-.058-.2-.054-.2-.054-.123-.033-.375-.129-.188-.068a18.057,18.057,0,0,0-2.8-.459l-.178-.026-.11-.029-.032.013-.055.021-.029.014a1.144,1.144,0,0,0-.162.085l-.064.04-.1.1a.511.511,0,0,0-.018.067c-.02.073-.034.059,0,0a.059.059,0,0,1,.006-.023.773.773,0,0,1-.022.083.809.809,0,0,0-.023.087l.08.154a1.462,1.462,0,0,1,.359.229l.171.078c.171.078.343.167.528.274l.209.056.365.1.191.03a8.7,8.7,0,0,1,2.571.519l.175.065c.233.088.476.189.744.307l.162.086.2.083.136.037C39.7,6.623,40.168,6.409,40.015,6.061Z" fill="#8fa293"/>
    <path id="패스_36" data-name="패스 36" d="M37.668,10.6c-.058-.13-.331-.239-.44-.311a2.345,2.345,0,0,1-.2-.151l-1.2-.321-.166-.045-.1-.027-.3-.1L35.1,9.6a15.017,15.017,0,0,0-2.276-.369l-.144-.021-.09-.024-.023-.006-.044.017-.024.011c-.044.02-.087.045-.129.069l-.051.033-.078.079-.014.053h0a.045.045,0,0,1,.005-.02.451.451,0,0,1-.018.067l-.019.07c.02.045.044.087.065.128a1.194,1.194,0,0,1,.306.186l.137.062c.139.066.28.139.432.223l.169.045.3.08.154.023a7.076,7.076,0,0,1,2.093.416L36,10.76c.191.073.389.155.606.252l.135.068.163.069.11.03C37.418,11.056,37.782,10.878,37.668,10.6Z" fill="#8fa293"/>
    <path id="패스_37" data-name="패스 37" d="M27.5,78.52a33.459,33.459,0,0,0,1.391-3.782c.221-.612.439-1.2.664-1.764l.376-1.406,1.079-4.037.367-1.372.368-1.379.342-1.279.346-1.3.214-.8.693-2.434c.11-.413.222-.83.36-1.239.458-1.823.865-3.449,1.244-4.961s.767-2.871,1.007-4.342a11.515,11.515,0,0,0,.235-2.226,8.14,8.14,0,0,0-.412-2.281c-.467-1.45-1.182-2.692-1.55-4.14a10.134,10.134,0,0,1-.192-1.066c-.032-.241-.046-.469-.057-.7l-.034-.166-.06-.295-.03-.154c-.062-.288-.107-.571-.156-.842l-.056-.326-.009-.045c-.036-.131-.1-.348-.124-.469-.029-.051-.055-.1-.086-.145-.13.033-.088-.124,0,0a.058.058,0,0,0,.041-.007c-.045.02-.09-.049-.13-.06a.393.393,0,0,0-.143-.01c-.114.241-.224.5-.32.757a18.858,18.858,0,0,0-.191,2.78,12.136,12.136,0,0,0,.163,1.254c.216,1.283.7,2.516,1.015,3.718a10.324,10.324,0,0,1,.3,1.2,7.4,7.4,0,0,1,.055,2.114c-.038.368-.094.75-.161,1.135-.1.687-.24,1.4-.394,2.086s-.3,1.348-.446,2c-.3,1.308-.605,2.572-.931,3.856-.65,2.564-1.388,5.193-2.243,8.395-.1.38-.22.758-.334,1.142-.45,1.539-.934,3.148-1.487,4.924-.12.368-.239.735-.365,1.112l-.4,1.322-.233.873C26.8,77.332,26.642,79.886,27.5,78.52Z" fill="#d6e5d8"/>
  </g>
</svg>
