<svg xmlns="http://www.w3.org/2000/svg" width="59.949" height="71.055" viewBox="0 0 59.949 71.055">
  <g id="그룹_1" data-name="그룹 1" transform="translate(-0.804 -0.528)">
    <path id="패스_1" data-name="패스 1" d="M17.43.539v0l0,0Z" fill="#dca877"/>
    <path id="패스_2" data-name="패스 2" d="M34.129,5.023v0l0,0Z" fill="#dca877"/>
    <path id="패스_3" data-name="패스 3" d="M15.9,1.418.8,57.908l4.547,1.034,3.195,2.576,39.1,10.064L58.819,13.3l-.167.1L57.43,11.279,55.314,12.5l-1.225-2.123-2.116,1.225-1.216-2.12-2.116,1.225L47.448,8.64l-2.065,1.2L44.161,7.713l-2.134,1.22L40.8,6.808l-2.12,1.227L37.461,5.913,35.345,7.138,34.12,5.015,32,6.24,30.782,4.118,28.666,5.344,27.442,3.218l-2.12,1.227L24.1,2.323,21.984,3.548l-1.15-2,.027-.1-.089-.024L18.656,2.651,17.431.528Z" fill="#c9976f"/>
    <path id="패스_4" data-name="패스 4" d="M34.129,5.023v0l0,0Z" fill="#f5d2b5"/>
    <path id="패스_5" data-name="패스 5" d="M20.84,1.555,8.542,61.522l39.1,10.06,13.113-59.4L58.815,13.3l-.167.1L57.426,11.28,55.31,12.5l-1.225-2.123-2.116,1.225L50.745,9.484,48.628,10.71,47.436,8.638l-2.066,1.2L44.149,7.712,42.033,8.937,40.808,6.811l-2.12,1.227L37.467,5.917,35.351,7.142,34.126,5.019,32.01,6.244,30.788,4.122,28.672,5.347,27.448,3.221l-2.12,1.227L24.106,2.327,21.99,3.552Z" fill="#d8b38b"/>
    <path id="패스_6" data-name="패스 6" d="M17.406,5.278c-.082.885-.662,3.706-.9,4.906q-.219,1.188-.412,2.293c-.043.16-.067.312-.1.476-.1.43-.191.862-.283,1.292-.379,1.715-.757,3.424-1.116,5.075-.127.573-.251,1.149-.379,1.725s-.253,1.155-.378,1.735-.236,1.068-.354,1.606-.237,1.084-.353,1.63l-.22,1.006q-.326,1.515-.657,3.075-.163.784-.328,1.56C9.843,40.779,8.692,46,6.824,53.678c-.123.461-.219.93-.323,1.381-.082.308-.135.6-.2.9l-.057.212-.1.372-.052.194c-.1.357-.222.7-.328,1.02-.036.135-.085.257-.129.384l-.013.049c-.06.152-.161.392-.212.523a.489.489,0,0,1-.084.142c-.045-.078-.081.117,0,0l.013.023c-.012-.04-.056.025-.077.029a.077.077,0,0,1-.066-.037l.109-.96c.222-1.088.426-2.161.608-3.21.1-.472.188-.939.291-1.435.293-1.454.6-2.969.9-4.6.12-.561.241-1.122.368-1.685q.325-1.476.665-2.967c.132-.492.229-.993.345-1.49,1.763-7.176,2.917-12.405,4.658-20.448q.152-.716.308-1.447c.409-1.951.834-4,1.294-6.247.092-.467.185-.939.281-1.421.115-.566.232-1.125.349-1.687.078-.365.159-.729.237-1.1C16.658,6.366,17.587,3.368,17.406,5.278Z" fill="#a07758"/>
    <path id="패스_7" data-name="패스 7" d="M34.129,5.023v0l0,0Z" fill="#dd945e"/>
    <path id="패스_8" data-name="패스 8" d="M34.129,5.023v0l0,0Z" fill="#dd945e"/>
    <path id="패스_9" data-name="패스 9" d="M20.769,1.433l.075.13.018-.105-.087-.023,0,0Z" fill="#dd945e"/>
    <path id="패스_10" data-name="패스 10" d="M17.43.539v0l0,0Z" fill="#dd945e"/>
  </g>
</svg>
