<svg xmlns="http://www.w3.org/2000/svg" width="56.95" height="71.842" viewBox="0 0 56.95 71.842">
  <g id="그룹_2" data-name="그룹 2" transform="translate(-1.775 -1.484)">
    <path id="패스_11" data-name="패스 11" d="M57.68,16.311,17.008,5.383l-.687,2.571L56.993,18.882Z" fill="#f2f2f2"/>
    <path id="패스_12" data-name="패스 12" d="M44.177,66.85,3.505,55.921A206.981,206.981,0,0,1,16.322,7.958L56.993,18.886a182.743,182.743,0,0,1-4.907,24.945A182.5,182.5,0,0,1,44.177,66.85Z" fill="#f2f2f2"/>
    <path id="패스_13" data-name="패스 13" d="M40.934,7.279l-.013.007-.007-.013Z" fill="#f2f2f2"/>
    <path id="패스_14" data-name="패스 14" d="M58.724,12.416l-1.042,3.9L17.009,5.385l1.042-3.9,1.661,2.882,2.869-1.659,1.655,2.875L27.1,3.927,28.751,6.8,31.617,5.14l1.652,2.869,2.863-1.655,1.652,2.869,2.866-1.655L42.3,10.436l2.863-1.656,1.652,2.869,2.866-1.655,1.652,2.869L54.2,11.205l1.656,2.872Z" fill="#f2f2f2"/>
    <path id="패스_15" data-name="패스 15" d="M40.928,7.266l-.013.008.008.013.013-.008Z" fill="#f2f2f2"/>
    <path id="패스_16" data-name="패스 16" d="M40.931,7.273l-.013.008.008.013.013-.008Z" fill="#f2f2f2"/>
    <path id="패스_17" data-name="패스 17" d="M2.813,58.5,43.484,69.43l.687-2.571L3.5,55.931Z" fill="#f2f2f2"/>
    <path id="패스_18" data-name="패스 18" d="M24.455,68.836l.01-.006.008.01Z" fill="#f2f2f2"/>
    <path id="패스_19" data-name="패스 19" d="M1.775,62.4l1.041-3.9L43.491,69.429l-1.042,3.9-1.661-2.882-2.87,1.662-1.655-2.877L33.4,70.887l-1.651-2.871-2.864,1.658L27.231,66.8,24.368,68.46l-1.651-2.871-2.866,1.657L18.2,64.375l-2.864,1.658-1.651-2.871-2.866,1.657L9.165,61.948,6.3,63.608,4.646,60.734Z" fill="#f2f2f2"/>
    <path id="패스_20" data-name="패스 20" d="M24.468,68.851l-.011.009.009.011.011-.009Z" fill="#f2f2f2"/>
    <path id="패스_21" data-name="패스 21" d="M24.466,68.854l-.013.005.005.013.013-.005Z" fill="#f2f2f2"/>
    <path id="패스_22" data-name="패스 22" d="M35.494,63.719a1.769,1.769,0,0,0-.336-.378c-.158-.131-.349-.269-.548-.416-.4-.264-.842-.509-1.1-.663-.337-.214-.661-.406-.969-.618l-.22-.081-.594-.216-2.3-.812-.758-.282c-.243-.092-.5-.2-.749-.3s-.45-.191-.679-.29-.443-.208-.667-.311c-.135-.068-.265-.141-.4-.211-.2-.105-.394-.221-.587-.343s-.384-.238-.573-.372-.385-.276-.581-.425a28.329,28.329,0,0,0-2.679-1.591,9.587,9.587,0,0,0-2.748-.851,13.468,13.468,0,0,0-5.309.366l-.663.134-.434.077-.1.052-.167.095-.087.055a4.373,4.373,0,0,0-.455.319l-.167.135-.022.021-.216.267a1.439,1.439,0,0,0-.05.137c.057.136-.036.135,0,0a.041.041,0,0,0-.016-.039c.026.042,0,.113.01.161a.913.913,0,0,0,.039.164l.475.157a7.957,7.957,0,0,1,1.526-.023c.219-.016.443-.032.667-.039a14.139,14.139,0,0,1,2.084.076c.245.007.5,0,.741.008s.429.01.639.027.424.03.636.047.418.05.63.07a6.513,6.513,0,0,1,2.1.52A13.361,13.361,0,0,1,22.8,59.436c.645.415,1.324.893,2.1,1.3a25.758,25.758,0,0,0,2.515,1.184c.216.1.432.189.652.278.877.37,1.791.75,2.771,1.177.2.094.4.194.6.3l.718.324c.156.069.311.129.461.2a22.568,22.568,0,0,0,2.305.181C35.463,64.356,35.755,64.187,35.494,63.719Z" fill="#d6d3d2"/>
    <path id="패스_23" data-name="패스 23" d="M39.194,55.683a.886.886,0,0,0,.223-.142,1.352,1.352,0,0,0,.249-.248,2.1,2.1,0,0,0,.237-.334,3.041,3.041,0,0,0,.2-.391,7.364,7.364,0,0,0,.418-1.444c.1-.43.182-.833.281-1.2l.005-.241c.006-.213.016-.42.029-.619a7.012,7.012,0,0,1,.153-1.1,7.859,7.859,0,0,1,.653-1.763c.119-.223.247-.471.384-.7s.26-.422.4-.631.292-.419.448-.624c.1-.127.2-.25.3-.376.306-.372.642-.747.994-1.123.179-.188.368-.374.54-.567.733-.878,1.427-1.7,2.035-2.51a17.2,17.2,0,0,0,1.569-2.45,14.857,14.857,0,0,0,1.038-2.56,14.058,14.058,0,0,0,.547-2.869c.031-.247.062-.492.084-.736.017-.162.042-.317.055-.477l-.025-.117-.049-.207-.028-.1c-.065-.2-.135-.388-.208-.564-.029-.072-.067-.139-.1-.207l-.016-.029-.229-.287c-.043-.028-.086-.058-.131-.081-.151.032-.13-.065,0,0a.222.222,0,0,0,.048-.009c-.051.019-.118-.032-.171-.022a1,1,0,0,0-.179.006c-.086.143-.181.3-.271.443a5.587,5.587,0,0,1-.4,1.5c-.046.222-.118.441-.177.662a11.644,11.644,0,0,1-.807,2.017c-.1.243-.189.487-.294.728-.173.427-.363.849-.56,1.272-.1.212-.206.42-.308.632a15.829,15.829,0,0,1-2.688,4.039c-.526.625-1.087,1.259-1.666,1.972a19.219,19.219,0,0,0-1.726,2.445c-.137.232-.272.465-.4.7a10.316,10.316,0,0,0-1.141,3.368c-.045.257-.082.516-.121.774l-.075.851-.044.526a7.53,7.53,0,0,1,.3,2.112c0,.135,0,.268.005.362a.642.642,0,0,0,.065.27C38.733,55.753,38.883,55.793,39.194,55.683Z" fill="#d6d3d2"/>
    <path id="패스_24" data-name="패스 24" d="M21.61,49.379c-.3-.234-1.066-.163-1.4-.218a4.032,4.032,0,0,1-.645-.146l-.126.02-.34.048q-.682.085-1.35.137l-.459.024-.46.016-.43.005-.439,0-.266-.007c-.265-.012-.56-.032-.848-.056l-.443-.038a26.9,26.9,0,0,0-3.4.356,9.146,9.146,0,0,0-1.517.431,7.89,7.89,0,0,0-.742.338c-.213.115-.38.21-.506.27a.485.485,0,0,1-.177.022.347.347,0,0,1-.109-.043l-.04.019-.082.035-.044.015a.775.775,0,0,1-.278.036.749.749,0,0,1-.107-.013.513.513,0,0,1-.1,0,.517.517,0,0,0-.1,0l-.129.043c-.147.119-.135.044,0,0,.017-.014.026-.017.047-.036a1.18,1.18,0,0,1-.173.1c-.058.036-.118.079-.177.119a1.4,1.4,0,0,0-.111.527,2.4,2.4,0,0,0,1.056,1.066,2.72,2.72,0,0,0,.7.111,6.334,6.334,0,0,0,.894-.056,4.058,4.058,0,0,1,.636-.023c.129-.03.265-.05.4-.081l.718-.159.37-.089a8.608,8.608,0,0,1,2.637-.52c.893-.05,1.835-.007,3.015-.015l.426.01,1.847.042.427.029c.17,0,.337-.009.5-.021.109-.008.216-.025.324-.039C21.63,50.809,22.266,49.883,21.61,49.379Z" fill="#d6d3d2"/>
    <path id="패스_25" data-name="패스 25" d="M41.735,16.948a8.587,8.587,0,0,0-1.888-.58c-.305-.082-.6-.179-.876-.284l-.189-.024-.518-.067q-1.014-.131-2-.267l-.672-.105c-.227-.034-.452-.073-.678-.112l-.626-.106c-.208-.034-.42-.075-.629-.115l-.389-.08c-.389-.08-.784-.168-1.178-.266l-.6-.16c-1.762-.309-3.124-.648-4.41-.994s-2.49-.712-3.94-1.188l-.5-.2a3.16,3.16,0,0,1-.322-.148l-.082-.022-.156-.018L22,12.2q-.229-.016-.454-.017l-.178,0-.022-.006-.285.063c-.036.023-.073.042-.106.066-.031.115-.1.066,0,0l.01-.038c-.011.04-.058.076-.08.11a1.179,1.179,0,0,0-.061.126l.239.352a12.338,12.338,0,0,1,1.077.795l.512.291c.513.307,1.07.581,1.654.915.213.087.429.169.647.249.378.142.764.272,1.159.378l.59.159,3.979.749c1.276.241,2.587.512,4.183.791l.571.11c.764.152,1.573.315,2.464.5l.557.134.664.122.434.063C41.154,17.865,42.416,17.489,41.735,16.948Z" fill="#d6d3d2"/>
    <path id="패스_26" data-name="패스 26" d="M50.05,18.83a11.646,11.646,0,0,0-2.656.077c-.428.017-.84.024-1.242.013l-.252.051-.677.135q-1.357.273-2.672.519l-.907.162-.915.165-.844.15-.858.143-.534.082c-.534.082-1.077.157-1.63.231l-.833.107c-2.394.494-4.288.829-6.085,1.174l-.67.129-.334.066-.162.035-.07.013-.026.006a.258.258,0,0,1-.143.023.212.212,0,0,1-.078-.021l-.038-.01-.022-.006-.025-.007c-.062-.06-.142-.151-.207-.228l-.246-.292-.462-.517c-.311-.352-.612-.718-.943-1.116-.146-.2-.284-.393-.418-.593-.087-.134-.167-.268-.246-.4l-.089-.078-.165-.136-.087-.066c-.167-.126-.331-.247-.493-.361l-.2-.131-.032-.009L24.431,18a.676.676,0,0,0-.163-.012c-.127.106-.156,0,0,0a.275.275,0,0,0,.04-.03c-.04.04-.122.037-.174.061a1.587,1.587,0,0,0-.162.094c-.007.186-.006.385-.007.579.241.554.463,1.108.648,1.677l.377.714c.387.72.81,1.462,1.292,2.248l.146.2.089.11.135.157a2.774,2.774,0,0,0,.7.567,2.488,2.488,0,0,0,1.535.275c.152-.018.217-.03.28-.043l.2-.035.4-.074c.265-.05.531-.1.793-.158A96.358,96.358,0,0,1,41.4,22.127l.774-.136c1.042-.147,2.134-.292,3.352-.444l.765-.063c.3-.04.6-.083.9-.132l.585-.112C49.715,20.254,51.16,19.222,50.05,18.83Z" fill="#d6d3d2"/>
    <path id="패스_27" data-name="패스 27" d="M57.25,16.252c-.634-.224-2.735-.8-3.627-1.063-.588-.158-1.151-.336-1.693-.5l-10.9-2.927-2.3-.619-1.173-.315C30.713,9.019,26.8,7.967,21,6.487l-1.035-.278-.678-.182-.16-.043-.283-.076L18.7,5.868,17.9,5.7l-.3-.059-.038-.01-.419-.067-.012,0-.121-.008c.043.041-.1,0,0,0L17,5.55c-.013,0-.033.013-.041.021s-.005.02.007.034l.68.234c.813.218,1.605.453,2.377.684l1.073.288,3.412.965,1.251.336,2.226.6,1.121.3c5.425,1.377,9.34,2.429,15.361,4.063l1.083.291c1.461.392,2.981.823,4.667,1.294l1.061.285,1.251.336.823.221C56.294,16.229,58.614,16.726,57.25,16.252Z" fill="#d6d3d2"/>
    <path id="패스_28" data-name="패스 28" d="M57.509,15.281c-.635-.222-2.735-.8-3.628-1.061l-1.693-.5-10.9-2.928-2.3-.619-1.173-.315C30.971,8.053,27.054,7,21.254,5.52l-1.035-.278-.678-.182-.16-.043-.286-.063-.145-.039-.792-.167-.3-.059-.038-.01L17.4,4.611l-.013,0L17.266,4.6c.043.039-.1,0,0,0l-.012,0c-.013,0-.033.013-.041.021s-.005.02.007.034l.681.231c.813.218,1.6.455,2.377.687l1.073.288c1.086.292,2.207.62,3.412.965l1.251.336,2.226.6,1.121.3c5.426,1.375,9.34,2.426,15.362,4.06l1.083.291c1.461.392,2.981.823,4.668,1.292l1.056.3,1.251.336.823.221C56.552,15.26,58.871,15.76,57.509,15.281Z" fill="#d6d3d2"/>
    <path id="패스_29" data-name="패스 29" d="M57,17.218c-.635-.222-2.735-.8-3.628-1.061l-1.693-.5-10.9-2.928-2.3-.619L37.305,11.8c-6.846-1.81-10.762-2.862-16.563-4.34L19.707,7.18,19.029,7l-.16-.043-.283-.076-.145-.039-.792-.165-.3-.062-.038-.01-.418-.069-.013,0-.121-.008c.043.041-.1,0,0,0l-.013,0c.025.007-.033.015-.04.021s-.006.023.006.037l.681.231c.813.218,1.605.453,2.377.684l1.07.3c1.086.292,2.207.62,3.413.963l1.251.336,2.226.6,1.121.3c5.425,1.377,9.34,2.429,15.361,4.063l1.083.291c1.461.392,2.981.823,4.667,1.294l1.057.3,1.251.336.823.221C56.041,17.2,58.36,17.695,57,17.218Z" fill="#d6d3d2"/>
    <path id="패스_30" data-name="패스 30" d="M43.387,68.127c-.635-.222-2.735-.8-3.627-1.063-.588-.158-1.152-.334-1.693-.5l-10.9-2.928-2.3-.619L23.7,62.7c-6.846-1.81-10.762-2.862-16.563-4.34L6.1,58.086,5.42,57.9l-.16-.043-.283-.076-.145-.039c-.274-.057-.54-.116-.792-.165l-.3-.062-.038-.01-.419-.067-.013,0-.121-.008c.043.041-.1,0,0,0l-.013,0c-.013,0-.033.013-.041.021s-.005.02.006.037l.681.231c.813.218,1.605.453,2.377.684l1.073.288,3.412.965,1.251.336,2.226.6,1.12.3c5.425,1.377,9.34,2.429,15.361,4.063l1.083.291c1.461.393,2.981.823,4.667,1.294l1.06.285,1.251.336.823.221C42.431,68.1,44.75,68.6,43.387,68.127Z" fill="#d6d3d2"/>
    <path id="패스_31" data-name="패스 31" d="M43.134,69.093c-.635-.222-2.735-.8-3.628-1.061l-1.693-.5-10.9-2.927-2.3-.619-1.173-.315c-6.846-1.81-10.762-2.862-16.563-4.34l-1.036-.278-.678-.182-.16-.043-.283-.076-.145-.039-.792-.167-.3-.059-.038-.01-.419-.067-.013,0L2.895,58.4c.043.039-.1,0,0,0l-.013,0c-.013,0-.034.015-.041.024s-.005.02.007.034l.681.231c.813.218,1.6.455,2.377.687l1.073.288c1.086.292,2.207.62,3.412.965l1.251.336,2.226.6,1.121.3c5.426,1.375,9.34,2.426,15.361,4.06l1.083.291c1.461.392,2.981.823,4.668,1.292l1.056.3,1.251.336.823.221C42.177,69.073,44.5,69.572,43.134,69.093Z" fill="#d6d3d2"/>
    <path id="패스_32" data-name="패스 32" d="M42.875,70.049c-.635-.222-2.735-.8-3.628-1.061-.584-.171-1.151-.336-1.692-.5l-10.9-2.927-2.3-.619-1.173-.315c-6.846-1.81-10.762-2.862-16.563-4.34l-1.035-.278-.678-.182-.16-.043-.283-.076-.145-.039c-.274-.058-.54-.116-.792-.165l-.3-.062-.038-.01-.418-.069-.013,0-.121-.008c.043.041-.1,0,0,0l-.013,0c-.013,0-.033.013-.041.021s-.005.02.006.037l.681.231c.813.218,1.605.453,2.377.684l1.073.288,3.412.965,1.251.336,2.226.6,1.121.3c5.425,1.377,9.34,2.429,15.361,4.063l1.083.291c1.461.393,2.981.823,4.667,1.294l1.057.3,1.251.336.823.221C41.916,70.038,44.239,70.525,42.875,70.049Z" fill="#d6d3d2"/>
  </g>
</svg>
