<svg xmlns="http://www.w3.org/2000/svg" width="76.8" height="119.999" viewBox="0 0 76.8 119.999">
  <g id="그룹_8" data-name="그룹 8" transform="translate(-0.258)">
    <path id="패스_83" data-name="패스 83" d="M68.154,23.078l-5.963,90.347A6.571,6.571,0,0,1,55.6,120H21.574a6.564,6.564,0,0,1-6.587-6.574L8.281,23.078Z" fill="#222b32"/>
    <path id="패스_84" data-name="패스 84" d="M66.3,23.078l-5.541,89.245a6.3,6.3,0,0,1-6.121,6.494H23.015a6.3,6.3,0,0,1-6.121-6.494L12.152,23.078Z" transform="translate(-0.02)" fill="#3c464f"/>
    <path id="패스_85" data-name="패스 85" d="M9.395,23.078l6.582,90.343A6.512,6.512,0,0,0,22.445,120h33.4a6.471,6.471,0,0,0,6.3-5.137,5.97,5.97,0,0,1-5.438,3.765l-32.851.185a6.259,6.259,0,0,1-6.009-6.495l-5.3-84.87c1.278-1.664,3.595-1.625,7.6-1.766,10.285-.358,25.066-.192,36.266-.14,6.454.031,10.628,1.452,11.336,4.695l.411-7.157Z" fill="#222b32"/>
    <path id="패스_86" data-name="패스 86" d="M4.843,11.841a.749.749,0,0,0-.749.75L.374,17.4v.031a.791.791,0,0,0-.116.407V22.65a.748.748,0,0,0,.763.754H76.314a.751.751,0,0,0,.744-.757V17.836a.75.75,0,0,0-.5-.708l-5.6-4.537a.751.751,0,0,0-.746-.755H4.843Z" fill="#1d5ddb"/>
    <path id="패스_87" data-name="패스 87" d="M.3,17.633H77.036v1.115H.3Zm0,0H77.036v1.115H.3Zm0,0H77.036v1.115H.3Zm0,0H77.036v1.115H.3Z" fill="#044aba"/>
    <path id="패스_88" data-name="패스 88" d="M4.133,13.939,10.839,15.8l55.333-.557,5.4-1.3L70.459,9.291V7.619l-.56-.558L68.6,2.784c-22.858-3.712-41.1-3.712-61.854,0L6.368,7.246l-.744.744L5.25,10.411l-.558.742-.56,2.789Z" fill="#1d5ddb"/>
    <path id="패스_89" data-name="패스 89" d="M4.418,13.849l6.613,1.486L10.939,9.2,70.37,9.017l-.094-.838-64.74.279.094,2.23-1.211.936Z" fill="#044aba"/>
    <path id="패스_90" data-name="패스 90" d="M4.508,11.242l6.335,1.394,56.171.094L71.3,11.336l-.838-.93-3.448,1.3H10.75L4.974,10.313Z" fill="#044aba"/>
    <path id="패스_91" data-name="패스 91" d="M6.742,3.619C7.766,3.525,68.5,3.433,68.5,3.433l-.186-.558H6.834Z" fill="#044aba"/>
    <path id="패스_92" data-name="패스 92" d="M4.419,14.186l6.66,1.427,55.94.094,5.24-2.085-.936-.7-4.316,1.767H11.066l-6.66-1.527V14.19Z" transform="translate(0)" fill="#044aba"/>
    <path id="패스_93" data-name="패스 93" d="M54.045,52.6H23.275l-.907-18.243h32.6Z" transform="translate(-0.01)" fill="#fff"/>
    <path id="패스_94" data-name="패스 94" d="M38.315,43.911H31.232c-.078,0-.123-.011-.141-.037a.264.264,0,0,1-.024-.136v-.592a.185.185,0,0,1,.034-.127.162.162,0,0,1,.131-.037h2.98V42.3a.175.175,0,0,1,.029-.119.209.209,0,0,1,.136-.029h.809a.209.209,0,0,1,.136.029.175.175,0,0,1,.029.119v.676h2.964a.226.226,0,0,1,.123.032.147.147,0,0,1,.05.132v.594a.152.152,0,0,1-.1.165A.153.153,0,0,1,38.315,43.911Zm-2.08-2.955c-.028.021-.057.042-.087.061a.913.913,0,0,1-.094.053c.138.043.285.087.442.127s.314.081.471.119l.458.111c.149.035.288.065.421.086a.22.22,0,0,1,.149.063c.021.031.019.084-.008.161l-.183.494a.231.231,0,0,1-.094.14.249.249,0,0,1-.146.008q-.592-.106-1.294-.3c-.471-.127-.929-.266-1.375-.421a13.246,13.246,0,0,1-1.365.484,12.064,12.064,0,0,1-1.44.342.312.312,0,0,1-.17,0,.2.2,0,0,1-.086-.111l-.191-.534c-.044-.128,0-.2.116-.231a15.4,15.4,0,0,0,1.927-.531,9.575,9.575,0,0,0,1.424-.621c.055-.027.083-.055.083-.084s-.032-.04-.1-.04H32.384a.178.178,0,0,1-.123-.032.174.174,0,0,1-.034-.124v-.61a.15.15,0,0,1,.034-.118.189.189,0,0,1,.123-.029h3.9a1.014,1.014,0,0,1,.6.147.419.419,0,0,1,.2.323.819.819,0,0,1-.239.539A3.035,3.035,0,0,1,36.234,40.956Zm-1.456,6.281a4.862,4.862,0,0,1-1.118-.115,3.011,3.011,0,0,1-.835-.323,1.574,1.574,0,0,1-.519-.47,1.036,1.036,0,0,1-.178-.581,1.052,1.052,0,0,1,.178-.584,1.507,1.507,0,0,1,.519-.47,3.065,3.065,0,0,1,.835-.313,5.514,5.514,0,0,1,2.236,0,2.988,2.988,0,0,1,.83.313,1.573,1.573,0,0,1,.521.47,1.04,1.04,0,0,1,.181.584,1.027,1.027,0,0,1-.181.581,1.646,1.646,0,0,1-.521.47,2.937,2.937,0,0,1-.83.323,4.877,4.877,0,0,1-1.123.115Zm0-2.082a2.715,2.715,0,0,0-1.077.176c-.267.118-.4.263-.4.433a.322.322,0,0,0,.1.223.971.971,0,0,0,.3.194,2.256,2.256,0,0,0,.466.14,3.541,3.541,0,0,0,1.223,0,2.254,2.254,0,0,0,.466-.14.939.939,0,0,0,.3-.194.323.323,0,0,0,.1-.223c0-.161-.133-.315-.4-.433a2.715,2.715,0,0,0-1.082-.176Z" transform="translate(-0.009)"/>
    <path id="패스_95" data-name="패스 95" d="M41.409,45.261a1.853,1.853,0,0,1-1.527-.754,2.657,2.657,0,0,1-.42-.852,3.775,3.775,0,0,1-.149-1.086,3.966,3.966,0,0,1,.149-1.117,2.7,2.7,0,0,1,.42-.868,1.941,1.941,0,0,1,.66-.565,1.86,1.86,0,0,1,.867-.2,1.883,1.883,0,0,1,1.543.754,2.647,2.647,0,0,1,.421.865,3.908,3.908,0,0,1,.149,1.115,3.831,3.831,0,0,1-.149,1.109,2.624,2.624,0,0,1-.421.852,1.885,1.885,0,0,1-1.543.749Zm0-4.446a.648.648,0,0,0-.391.128,1.069,1.069,0,0,0-.306.358,2.007,2.007,0,0,0-.2.552,3.256,3.256,0,0,0-.07.7,3.074,3.074,0,0,0,.07.676,2.014,2.014,0,0,0,.2.542,1.089,1.089,0,0,0,.306.363.648.648,0,0,0,.391.132.657.657,0,0,0,.4-.132,1.09,1.09,0,0,0,.306-.363,2.014,2.014,0,0,0,.2-.542,3.08,3.08,0,0,0,.07-.676,3.262,3.262,0,0,0-.07-.7,2.007,2.007,0,0,0-.2-.552,1.07,1.07,0,0,0-.306-.358A.663.663,0,0,0,41.409,40.815ZM45.347,47.2H44.52a.19.19,0,0,1-.123-.029c-.023-.019-.032-.061-.032-.127V39.454a.126.126,0,0,1,.155-.157h.827a.178.178,0,0,1,.123.032.175.175,0,0,1,.034.124V47.04a.169.169,0,0,1-.034.127A.19.19,0,0,1,45.347,47.2Z" transform="translate(-0.011)"/>
  </g>
</svg>
