<svg xmlns="http://www.w3.org/2000/svg" width="76.804" height="119.999" viewBox="0 0 76.804 119.999">
  <g id="그룹_7" data-name="그룹 7" transform="translate(-0.492)">
    <path id="패스_70" data-name="패스 70" d="M68.4,23.078l-5.963,90.347A6.573,6.573,0,0,1,55.852,120H21.811a6.563,6.563,0,0,1-6.589-6.574L8.512,23.078Z" fill="#222b32"/>
    <path id="패스_71" data-name="패스 71" d="M66.532,23.078l-5.541,89.245a6.3,6.3,0,0,1-6.121,6.494H23.246a6.3,6.3,0,0,1-6.121-6.494l-4.75-89.245H66.532Z" fill="#3c464f"/>
    <path id="패스_72" data-name="패스 72" d="M9.621,23.078l6.584,90.343A6.512,6.512,0,0,0,22.676,120H56.085a6.474,6.474,0,0,0,6.3-5.137,5.976,5.976,0,0,1-5.442,3.765l-32.86.185a6.261,6.261,0,0,1-6.013-6.495l-5.3-84.87c1.278-1.664,3.6-1.625,7.6-1.766,10.288-.358,25.074-.192,36.28-.14,6.456.031,10.63,1.452,11.339,4.695l.411-7.157Z" fill="#222b32"/>
    <path id="패스_73" data-name="패스 73" d="M5.075,11.841a.751.751,0,0,0-.746.755L.609,17.407v.026a.791.791,0,0,0-.116.407V22.65a.748.748,0,0,0,.746.755H76.55a.751.751,0,0,0,.746-.757V17.836a.749.749,0,0,0-.5-.708l-5.586-4.537a.751.751,0,0,0-.746-.755H5.075Z" fill="#c11f1f"/>
    <path id="패스_74" data-name="패스 74" d="M.531,17.633H77.286v1.115H.531Zm0,0H77.286v1.115H.531Zm0,0H77.286v1.115H.531Zm0,0H77.286v1.115H.531Z" fill="#9b1515"/>
    <path id="패스_75" data-name="패스 75" d="M4.363,13.939l6.71,1.859,55.348-.557,5.4-1.3L70.708,9.291V7.619l-.56-.558-1.3-4.277C45.98-.928,27.729-.928,6.973,2.784L6.6,7.246l-.746.744-.372,2.421-.56.742-.56,2.789Z" fill="#c11f1f"/>
    <path id="패스_76" data-name="패스 76" d="M4.645,13.849l6.616,1.486L11.167,9.2l59.449-.186-.092-.838L5.762,8.459l.094,2.23-1.212.93Z" fill="#9b1515"/>
    <path id="패스_77" data-name="패스 77" d="M4.738,11.242l6.337,1.394,56.188.094,4.285-1.394-.838-.93-3.447,1.3H10.981L5.2,10.313Z" fill="#9b1515"/>
    <path id="패스_78" data-name="패스 78" d="M6.973,3.619C8,3.525,68.751,3.433,68.751,3.433l-.186-.558H7.066Z" fill="#9b1515"/>
    <path id="패스_79" data-name="패스 79" d="M4.645,14.186l6.66,1.427,55.958.094L72.5,13.621l-.938-.7-4.3,1.767H11.3l-6.66-1.527v1.023Z" fill="#9b1515"/>
    <path id="패스_80" data-name="패스 80" d="M54.275,52.6H23.505L22.6,34.359H55.2Z" fill="#fff"/>
    <path id="패스_81" data-name="패스 81" d="M38.553,44.382H36.895v2.582a.145.145,0,0,1-.042.12.146.146,0,0,1-.12.042h-.827a.161.161,0,0,1-.123-.037.185.185,0,0,1-.034-.127V44.382H34.293v2.582a.147.147,0,0,1-.008.064.148.148,0,0,1-.035.055.147.147,0,0,1-.119.042h-.825a.146.146,0,0,1-.162-.161V44.382H31.462c-.071,0-.116-.016-.136-.05a.272.272,0,0,1-.029-.139v-.568a.258.258,0,0,1,.029-.137c.019-.029.065-.045.136-.045h7.09c.117,0,.173.061.173.182v.568C38.726,44.314,38.669,44.382,38.553,44.382Zm-3.541-1.425a4.228,4.228,0,0,1-1.081-.131,3.02,3.02,0,0,1-.859-.366,1.844,1.844,0,0,1-.569-.565,1.351,1.351,0,0,1-.205-.733,1.374,1.374,0,0,1,.205-.737,1.835,1.835,0,0,1,.569-.568,3.017,3.017,0,0,1,.859-.366,4.5,4.5,0,0,1,2.155,0,2.99,2.99,0,0,1,.857.366,1.819,1.819,0,0,1,.569.568,1.376,1.376,0,0,1,.207.737,1.352,1.352,0,0,1-.207.733,1.843,1.843,0,0,1-.564.565,2.946,2.946,0,0,1-.859.366,4.247,4.247,0,0,1-1.077.126Zm0-2.66a2.607,2.607,0,0,0-.623.071,1.823,1.823,0,0,0-.485.189,1,1,0,0,0-.324.281.558.558,0,0,0-.116.333.53.53,0,0,0,.116.323,1,1,0,0,0,.324.273,1.942,1.942,0,0,0,.485.184,2.77,2.77,0,0,0,1.247,0,1.962,1.962,0,0,0,.485-.184.97.97,0,0,0,.314-.273.555.555,0,0,0,.11-.323.584.584,0,0,0-.11-.333.97.97,0,0,0-.314-.281,1.838,1.838,0,0,0-.485-.189,2.582,2.582,0,0,0-.624-.076Z"/>
    <path id="패스_82" data-name="패스 82" d="M43.984,45.006c-.248.049-.523.094-.825.131s-.615.071-.937.1-.647.04-.971.045-.626,0-.912,0a.7.7,0,0,1-.485-.14.622.622,0,0,1-.128-.444V42.535a.483.483,0,0,1,.115-.37.546.546,0,0,1,.38-.108h1.941a.144.144,0,0,0,.1-.021.149.149,0,0,0,.019-.094V40.938a.149.149,0,0,0-.019-.094.144.144,0,0,0-.1-.021H39.933a.141.141,0,0,1-.162-.161v-.626a.16.16,0,0,1,.037-.123.193.193,0,0,1,.128-.034h2.912a1.186,1.186,0,0,1,.293.029.365.365,0,0,1,.175.1.353.353,0,0,1,.083.173,1.549,1.549,0,0,1,.019.271v1.9a.6.6,0,0,1-.139.465.671.671,0,0,1-.438.119H40.958a.1.1,0,0,0-.107.108v1.193c0,.071.04.108.123.108a14.194,14.194,0,0,0,1.477-.042,13.239,13.239,0,0,0,1.4-.181.148.148,0,0,1,.112.011.334.334,0,0,1,.037.1l.107.61a.165.165,0,0,1-.013.119A.236.236,0,0,1,43.984,45.006Zm1.593,2.19h-.825a.194.194,0,0,1-.125-.029.177.177,0,0,1-.032-.127V39.454a.185.185,0,0,1,.032-.124.183.183,0,0,1,.125-.032h.825a.127.127,0,0,1,.157.156V47.04a.177.177,0,0,1-.032.127A.2.2,0,0,1,45.577,47.2Z"/>
  </g>
</svg>
