<svg xmlns="http://www.w3.org/2000/svg" width="76.804" height="119.999" viewBox="0 0 76.804 119.999">
  <g id="그룹_5" data-name="그룹 5" transform="translate(-0.957)">
    <path id="패스_45" data-name="패스 45" d="M68.875,23.078l-5.963,90.347A6.573,6.573,0,0,1,56.323,120H22.282a6.563,6.563,0,0,1-6.589-6.574L8.977,23.078Z" fill="#222b32"/>
    <path id="패스_46" data-name="패스 46" d="M67,23.078l-5.541,89.245a6.3,6.3,0,0,1-6.121,6.494H23.712a6.3,6.3,0,0,1-6.121-6.494L12.848,23.078Z" fill="#3c464f"/>
    <path id="패스_47" data-name="패스 47" d="M10.09,23.078l6.584,90.343A6.512,6.512,0,0,0,23.145,120H56.553a6.468,6.468,0,0,0,6.3-5.137,5.976,5.976,0,0,1-5.442,3.765l-32.86.185a6.261,6.261,0,0,1-6.013-6.495l-5.3-84.87c1.278-1.664,3.6-1.625,7.6-1.766,10.289-.358,25.074-.192,36.28-.14,6.456.031,10.63,1.452,11.339,4.695l.411-7.157H10.09Z" fill="#222b32"/>
    <path id="패스_48" data-name="패스 48" d="M5.54,11.841a.751.751,0,0,0-.746.755L1.074,17.407v.026a.791.791,0,0,0-.116.407V22.65a.748.748,0,0,0,.746.755H77.015a.751.751,0,0,0,.746-.757V17.836a.749.749,0,0,0-.5-.708l-5.586-4.537a.751.751,0,0,0-.746-.755H5.54Z" fill="#1bc98f"/>
    <path id="패스_49" data-name="패스 49" d="M1,17.633H77.751v1.115H1Zm0,0H77.751v1.115H1Zm0,0H77.751v1.115H1Zm0,0H77.751v1.115H1Z" fill="#0d9e6a"/>
    <path id="패스_50" data-name="패스 50" d="M4.828,13.939l6.71,1.859,55.348-.557,5.4-1.3L71.173,9.291V7.619l-.56-.558-1.3-4.277C46.445-.928,28.194-.928,7.437,2.784L7.065,7.246,6.32,7.99l-.372,2.421-.56.742-.56,2.789Z" fill="#1bc98f"/>
    <path id="패스_51" data-name="패스 51" d="M5.109,13.849l6.616,1.486L11.632,9.2l59.449-.186-.092-.838L6.227,8.459l.094,2.23-1.212.93Z" fill="#0d9e6a"/>
    <path id="패스_52" data-name="패스 52" d="M5.2,11.242l6.337,1.394,56.188.094,4.285-1.394-.838-.93-3.447,1.3H11.449L5.672,10.313Z" fill="#0d9e6a"/>
    <path id="패스_53" data-name="패스 53" d="M7.438,3.619c1.026-.094,61.778-.186,61.778-.186l-.186-.558H7.531Z" fill="#0d9e6a"/>
    <path id="패스_54" data-name="패스 54" d="M5.109,14.186l6.66,1.427,55.958.094,5.241-2.085-.938-.7-4.3,1.767H11.773l-6.66-1.527V14.19Z" fill="#0d9e6a"/>
    <path id="패스_55" data-name="패스 55" d="M54.572,53.063H23.8L22.895,34.82h32.6Z" fill="#fff"/>
    <path id="패스_56" data-name="패스 56" d="M36.218,42.376a.228.228,0,0,1-.112-.024c-.031-.016-.045-.061-.045-.132v-.581a.192.192,0,0,1,.028-.127.117.117,0,0,1,.041-.023.119.119,0,0,1,.047-.006l.982-.016q.463,0,.907-.034a3.851,3.851,0,0,0,.2-.558.2.2,0,0,0,0-.14c-.016-.027-.063-.042-.141-.042H36.383c-.073,0-.117-.011-.133-.032a.225.225,0,0,1-.024-.124V39.91c0-.055.011-.092.037-.108a.243.243,0,0,1,.128-.024h2.426a.686.686,0,0,1,.485.128.67.67,0,0,1,.123.465,3.1,3.1,0,0,1-.2,1.062,4.567,4.567,0,0,1-.586,1.1,5.456,5.456,0,0,1-.945,1.009,5.247,5.247,0,0,1-1.28.781c-.1.045-.162.063-.186.053a.217.217,0,0,1-.086-.1l-.257-.512a.4.4,0,0,1-.057-.161c0-.032.047-.071.139-.115a5.067,5.067,0,0,0,.843-.531,4.717,4.717,0,0,0,.66-.629c-.22.016-.437.027-.647.037S36.41,42.376,36.218,42.376Zm6.487,4.68H37.951a1.16,1.16,0,0,1-.285-.029.35.35,0,0,1-.173-.094.371.371,0,0,1-.087-.182,1.419,1.419,0,0,1-.024-.287V44.632c0-.115.055-.173.162-.173h.809a.163.163,0,0,1,.068.01.16.16,0,0,1,.058.037.161.161,0,0,1,.047.126V46c0,.082.044.124.133.124H42.7a.237.237,0,0,1,.115.027.127.127,0,0,1,.05.121v.646c0,.077-.016.121-.05.132a.354.354,0,0,1-.112.015ZM42.514,44.8h-.809a.178.178,0,0,1-.123-.032.174.174,0,0,1-.034-.124V42.474h-.594v1.993a.161.161,0,0,1-.032.119.2.2,0,0,1-.125.029h-.775a.219.219,0,0,1-.129-.029.148.148,0,0,1-.037-.119V39.594a.179.179,0,0,1,.037-.132.2.2,0,0,1,.129-.032H40.8a.144.144,0,0,1,.162.161v1.951h.594v-2.1a.144.144,0,0,1,.162-.161h.809a.183.183,0,0,1,.125.032.177.177,0,0,1,.032.124v5.2a.174.174,0,0,1-.032.124A.183.183,0,0,1,42.514,44.8Z"/>
  </g>
</svg>
