<svg xmlns="http://www.w3.org/2000/svg" width="76.8" height="119.999" viewBox="0 0 76.8 119.999">
  <g id="그룹_6" data-name="그룹 6" transform="translate(-0.723)">
    <path id="패스_57" data-name="패스 57" d="M68.624,23.078l-5.964,90.348A6.572,6.572,0,0,1,56.073,120H22.037a6.564,6.564,0,0,1-6.588-6.573L8.742,23.078Z" fill="#222b32"/>
    <path id="패스_58" data-name="패스 58" d="M66.766,23.078l-5.541,89.245a6.3,6.3,0,0,1-6.121,6.494H23.48a6.3,6.3,0,0,1-6.121-6.494L12.617,23.078H66.766Z" transform="translate(-0.01)" fill="#3c464f"/>
    <path id="패스_59" data-name="패스 59" d="M9.855,23.078l6.583,90.343A6.513,6.513,0,0,0,22.908,120h33.4a6.473,6.473,0,0,0,6.3-5.137,5.972,5.972,0,0,1-5.439,3.765l-32.856.185a6.261,6.261,0,0,1-6.012-6.495L13,27.447c1.276-1.664,3.594-1.625,7.6-1.766,10.285-.358,25.07-.192,36.272-.14,6.455.031,10.63,1.452,11.336,4.695l.413-7.157H9.855Z" fill="#222b32"/>
    <path id="패스_60" data-name="패스 60" d="M5.305,11.841a.751.751,0,0,0-.746.755L.839,17.407v.026a.791.791,0,0,0-.116.407V22.65a.748.748,0,0,0,.752.754h75.3a.751.751,0,0,0,.746-.757V17.836a.749.749,0,0,0-.5-.708L71.43,12.591a.75.75,0,0,0-.744-.755H5.305Z" fill="#ffd400"/>
    <path id="패스_61" data-name="패스 61" d="M.766,17.633H77.509v1.115H.766Zm0,0H77.509v1.115H.766Zm0,0H77.509v1.115H.766Zm0,0H77.509v1.115H.766Z" transform="translate(0)" fill="#ff9d00"/>
    <path id="패스_62" data-name="패스 62" d="M4.594,13.939,11.3,15.8l55.341-.557,5.4-1.3L70.927,9.291V7.619l-.558-.558L69.064,2.784C46.2-.928,27.956-.928,7.2,2.784L6.829,7.246l-.746.744-.372,2.421-.56.742-.558,2.789Z" transform="translate(0)" fill="#ffd400"/>
    <path id="패스_63" data-name="패스 63" d="M4.871,13.849l6.615,1.486L11.393,9.2l59.441-.186L70.74,8.18,5.99,8.459l.092,2.23-1.211.936Z" fill="#ff9d00"/>
    <path id="패스_64" data-name="패스 64" d="M4.969,11.242,11.3,12.636l56.179.094,4.286-1.394-.839-.93-3.447,1.3H11.211L5.435,10.313Z" fill="#ff9d00"/>
    <path id="패스_65" data-name="패스 65" d="M7.2,3.619c1.025-.094,61.77-.186,61.77-.186l-.188-.558H7.3Z" transform="translate(0)" fill="#ff9d00"/>
    <path id="패스_66" data-name="패스 66" d="M4.871,14.186l6.661,1.427,55.948.094,5.241-2.085-.938-.7-4.3,1.761H11.53L4.871,13.156v1.03Z" transform="translate(0)" fill="#ff9d00"/>
    <path id="패스_67" data-name="패스 67" d="M54.506,52.6H23.736l-.908-18.243h32.6Z" transform="translate(-0.005)" fill="#fff"/>
    <path id="패스_68" data-name="패스 68" d="M35.276,44.908H32.75a1.791,1.791,0,0,1-.324-.026.421.421,0,0,1-.2-.086.323.323,0,0,1-.1-.178,1.551,1.551,0,0,1-.024-.3V39.892c0-.1.049-.161.149-.161h.833a.142.142,0,0,1,.162.161v1.632h1.511v-1.64a.141.141,0,0,1,.162-.161h.825a.149.149,0,0,1,.065.007.145.145,0,0,1,.1.154v4.454a.609.609,0,0,1-.128.446A.755.755,0,0,1,35.276,44.908Zm-.511-2.455H33.253v1.4a.109.109,0,0,0,.005.05.11.11,0,0,0,.119.073H34.64a.11.11,0,0,0,.125-.123ZM38.048,47.2h-.825a.189.189,0,0,1-.123-.029.169.169,0,0,1-.034-.127V39.454a.176.176,0,0,1,.034-.124.178.178,0,0,1,.123-.032h.825a.183.183,0,0,1,.125.032.185.185,0,0,1,.032.124V47.04a.177.177,0,0,1-.032.127A.194.194,0,0,1,38.048,47.2Z" transform="translate(-0.004)"/>
    <path id="패스_69" data-name="패스 69" d="M44.281,42.879a7.766,7.766,0,0,1-.854.161q-.485.061-.982.09t-.961.032c-.309,0-.569,0-.785-.019a.81.81,0,0,1-.485-.161.593.593,0,0,1-.141-.445V39.7a.142.142,0,0,1,.162-.161h.809c.117,0,.173.055.173.161v2.322a.2.2,0,0,0,.026.115c.016.023.058.034.123.034h.647c.24,0,.485-.018.73-.034s.485-.04.734-.069.463-.064.662-.1a.162.162,0,0,1,.131.013.125.125,0,0,1,.042.069l.107.683C44.43,42.805,44.386,42.858,44.281,42.879Zm1.668,4.357H41.566a1.3,1.3,0,0,1-.293-.027.361.361,0,0,1-.173-.092.308.308,0,0,1-.084-.161,1.37,1.37,0,0,1-.019-.25v-1.08a1.387,1.387,0,0,1,.019-.255.3.3,0,0,1,.084-.161.324.324,0,0,1,.162-.087,1.372,1.372,0,0,1,.29-.024h3.135c.055,0,.084-.031.084-.09v-.2c0-.066-.031-.1-.092-.1H41.139a.2.2,0,0,1-.129-.032.181.181,0,0,1-.036-.132v-.568a.144.144,0,0,1,.162-.161H45.3a1.3,1.3,0,0,1,.306.029.416.416,0,0,1,.181.09.31.31,0,0,1,.087.161,1.3,1.3,0,0,1,.019.247v1.07a1.512,1.512,0,0,1-.019.268.3.3,0,0,1-.083.161.351.351,0,0,1-.175.079,1.825,1.825,0,0,1-.3.019H42.2a.073.073,0,0,0-.033,0,.073.073,0,0,0-.049.079v.231a.079.079,0,0,0,.091.09h3.721a.229.229,0,0,1,.128.026c.024.016.037.06.037.131v.568c.011.11-.04.165-.146.165Zm-.207-3.82h-.833a.144.144,0,0,1-.162-.161v-3.8a.176.176,0,0,1,.034-.124A.178.178,0,0,1,44.9,39.3h.833a.163.163,0,0,1,.12.032.2.2,0,0,1,.029.124v3.8c0,.11-.044.161-.144.161Z" transform="translate(-0.006)"/>
  </g>
</svg>
